<?xml version="1.0" encoding="UTF-8" standalone="no"?>
<!DOCTYPE svg PUBLIC "-//W3C//DTD SVG 1.1//EN"
 "http://www.w3.org/Graphics/SVG/1.1/DTD/svg11.dtd">
<!-- Generated by graphviz version 2.40.1 (20161225.0304)
 -->
<!-- Title: Graphical Class Hierarchy Pages: 1 -->
<svg width="246pt" height="137pt"
 viewBox="0.00 0.00 246.00 137.00" xmlns="http://www.w3.org/2000/svg" xmlns:xlink="http://www.w3.org/1999/xlink">
<g id="graph0" class="graph" transform="scale(1 1) rotate(0) translate(4 133)">
<title>Graphical Class Hierarchy</title>
<polygon fill="#ffffff" stroke="transparent" points="-4,4 -4,-133 242,-133 242,4 -4,4"/>
<!-- Node0 -->
<g id="node1" class="node">
<title>Node0</title>
<g id="a_node1"><a xlink:href="structbiomodel_1_1flatModel_1_1Medium.html" target="_top" xlink:title="biomodel::flatModel\l::Medium">
<polygon fill="#ffffff" stroke="#000000" points="0,-49.5 0,-79.5 101,-79.5 101,-49.5 0,-49.5"/>
<text text-anchor="start" x="8" y="-67.5" font-family="Helvetica,sans-Serif" font-size="10.00" fill="#000000">biomodel::flatModel</text>
<text text-anchor="middle" x="50.5" y="-56.5" font-family="Helvetica,sans-Serif" font-size="10.00" fill="#000000">::Medium</text>
</a>
</g>
</g>
<!-- Node1 -->
<g id="node2" class="node">
<title>Node1</title>
<g id="a_node2"><a xlink:href="structbiomodel_1_1flatModel_1_1Bio4.html" target="_top" xlink:title="biomodel::flatModel\l::Bio4">
<polygon fill="#ffffff" stroke="#000000" points="137,-98.5 137,-128.5 238,-128.5 238,-98.5 137,-98.5"/>
<text text-anchor="start" x="145" y="-116.5" font-family="Helvetica,sans-Serif" font-size="10.00" fill="#000000">biomodel::flatModel</text>
<text text-anchor="middle" x="187.5" y="-105.5" font-family="Helvetica,sans-Serif" font-size="10.00" fill="#000000">::Bio4</text>
</a>
</g>
</g>
<!-- Node0&#45;&gt;Node1 -->
<g id="edge1" class="edge">
<title>Node0&#45;&gt;Node1</title>
<path fill="none" stroke="#191970" d="M102.3238,-83.0355C116.4721,-88.0959 131.6311,-93.5177 145.1812,-98.3641"/>
<polygon fill="#191970" stroke="#191970" points="103.317,-79.6737 92.7224,-79.6014 100.9595,-86.2648 103.317,-79.6737"/>
</g>
<!-- Node2 -->
<g id="node3" class="node">
<title>Node2</title>
<g id="a_node3"><a xlink:href="structbiomodel_1_1flatModel_1_1Bio8.html" target="_top" xlink:title="biomodel::flatModel\l::Bio8">
<polygon fill="#ffffff" stroke="#000000" points="137,-49.5 137,-79.5 238,-79.5 238,-49.5 137,-49.5"/>
<text text-anchor="start" x="145" y="-67.5" font-family="Helvetica,sans-Serif" font-size="10.00" fill="#000000">biomodel::flatModel</text>
<text text-anchor="middle" x="187.5" y="-56.5" font-family="Helvetica,sans-Serif" font-size="10.00" fill="#000000">::Bio8</text>
</a>
</g>
</g>
<!-- Node0&#45;&gt;Node2 -->
<g id="edge2" class="edge">
<title>Node0&#45;&gt;Node2</title>
<path fill="none" stroke="#191970" d="M111.3203,-64.5C119.7722,-64.5 128.3819,-64.5 136.6262,-64.5"/>
<polygon fill="#191970" stroke="#191970" points="111.1245,-61.0001 101.1245,-64.5 111.1245,-68.0001 111.1245,-61.0001"/>
</g>
<!-- Node3 -->
<g id="node4" class="node">
<title>Node3</title>
<g id="a_node4"><a xlink:href="structbiomodel_1_1flatModel_1_1RigidBody.html" target="_top" xlink:title="biomodel::flatModel\l::RigidBody">
<polygon fill="#ffffff" stroke="#000000" points="137,-.5 137,-30.5 238,-30.5 238,-.5 137,-.5"/>
<text text-anchor="start" x="145" y="-18.5" font-family="Helvetica,sans-Serif" font-size="10.00" fill="#000000">biomodel::flatModel</text>
<text text-anchor="middle" x="187.5" y="-7.5" font-family="Helvetica,sans-Serif" font-size="10.00" fill="#000000">::RigidBody</text>
</a>
</g>
</g>
<!-- Node0&#45;&gt;Node3 -->
<g id="edge3" class="edge">
<title>Node0&#45;&gt;Node3</title>
<path fill="none" stroke="#191970" d="M102.3238,-45.9645C116.4721,-40.9041 131.6311,-35.4823 145.1812,-30.6359"/>
<polygon fill="#191970" stroke="#191970" points="100.9595,-42.7352 92.7224,-49.3986 103.317,-49.3263 100.9595,-42.7352"/>
</g>
</g>
</svg>
