<?xml version="1.0" encoding="UTF-8" standalone="no"?>
<!DOCTYPE svg PUBLIC "-//W3C//DTD SVG 1.1//EN"
 "http://www.w3.org/Graphics/SVG/1.1/DTD/svg11.dtd">
<!-- Generated by graphviz version 2.40.1 (20161225.0304)
 -->
<!-- Title: biomodel::segment::Segment Pages: 1 -->
<svg width="254pt" height="137pt"
 viewBox="0.00 0.00 254.00 137.00" xmlns="http://www.w3.org/2000/svg" xmlns:xlink="http://www.w3.org/1999/xlink">
<g id="graph0" class="graph" transform="scale(1 1) rotate(0) translate(4 133)">
<title>biomodel::segment::Segment</title>
<polygon fill="#ffffff" stroke="transparent" points="-4,4 -4,-133 250,-133 250,4 -4,4"/>
<!-- Node0 -->
<g id="node1" class="node">
<title>Node0</title>
<polygon fill="#bfbfbf" stroke="#000000" points="0,-49.5 0,-79.5 105,-79.5 105,-49.5 0,-49.5"/>
<text text-anchor="start" x="8" y="-67.5" font-family="Helvetica,sans-Serif" font-size="10.00" fill="#000000">biomodel::segment::</text>
<text text-anchor="middle" x="52.5" y="-56.5" font-family="Helvetica,sans-Serif" font-size="10.00" fill="#000000">Segment</text>
</g>
<!-- Node1 -->
<g id="node2" class="node">
<title>Node1</title>
<g id="a_node2"><a xlink:href="structbiomodel_1_1segment_1_1BodySegment.html" target="_top" xlink:title="biomodel::segment::\lBodySegment">
<polygon fill="#ffffff" stroke="#000000" points="141,-98.5 141,-128.5 246,-128.5 246,-98.5 141,-98.5"/>
<text text-anchor="start" x="149" y="-116.5" font-family="Helvetica,sans-Serif" font-size="10.00" fill="#000000">biomodel::segment::</text>
<text text-anchor="middle" x="193.5" y="-105.5" font-family="Helvetica,sans-Serif" font-size="10.00" fill="#000000">BodySegment</text>
</a>
</g>
</g>
<!-- Node0&#45;&gt;Node1 -->
<g id="edge1" class="edge">
<title>Node0&#45;&gt;Node1</title>
<path fill="none" stroke="#191970" d="M105.4171,-82.8896C120.0981,-87.9916 135.8658,-93.4711 149.9456,-98.3641"/>
<polygon fill="#191970" stroke="#191970" points="106.55,-79.5781 95.9552,-79.6014 104.2521,-86.1902 106.55,-79.5781"/>
</g>
<!-- Node2 -->
<g id="node3" class="node">
<title>Node2</title>
<g id="a_node3"><a xlink:href="structbiomodel_1_1segment_1_1CyborgSegment.html" target="_top" xlink:title="biomodel::segment::\lCyborgSegment">
<polygon fill="#ffffff" stroke="#000000" points="141,-49.5 141,-79.5 246,-79.5 246,-49.5 141,-49.5"/>
<text text-anchor="start" x="149" y="-67.5" font-family="Helvetica,sans-Serif" font-size="10.00" fill="#000000">biomodel::segment::</text>
<text text-anchor="middle" x="193.5" y="-56.5" font-family="Helvetica,sans-Serif" font-size="10.00" fill="#000000">CyborgSegment</text>
</a>
</g>
</g>
<!-- Node0&#45;&gt;Node2 -->
<g id="edge2" class="edge">
<title>Node0&#45;&gt;Node2</title>
<path fill="none" stroke="#191970" d="M115.0504,-64.5C123.6995,-64.5 132.5102,-64.5 140.953,-64.5"/>
<polygon fill="#191970" stroke="#191970" points="115.0032,-61.0001 105.0032,-64.5 115.0032,-68.0001 115.0032,-61.0001"/>
</g>
<!-- Node3 -->
<g id="node4" class="node">
<title>Node3</title>
<g id="a_node4"><a xlink:href="structbiomodel_1_1segment_1_1PeripheralSegment.html" target="_top" xlink:title="biomodel::segment::\lPeripheralSegment">
<polygon fill="#ffffff" stroke="#000000" points="141,-.5 141,-30.5 246,-30.5 246,-.5 141,-.5"/>
<text text-anchor="start" x="149" y="-18.5" font-family="Helvetica,sans-Serif" font-size="10.00" fill="#000000">biomodel::segment::</text>
<text text-anchor="middle" x="193.5" y="-7.5" font-family="Helvetica,sans-Serif" font-size="10.00" fill="#000000">PeripheralSegment</text>
</a>
</g>
</g>
<!-- Node0&#45;&gt;Node3 -->
<g id="edge3" class="edge">
<title>Node0&#45;&gt;Node3</title>
<path fill="none" stroke="#191970" d="M105.4171,-46.1104C120.0981,-41.0084 135.8658,-35.5289 149.9456,-30.6359"/>
<polygon fill="#191970" stroke="#191970" points="104.2521,-42.8098 95.9552,-49.3986 106.55,-49.4219 104.2521,-42.8098"/>
</g>
</g>
</svg>
