<?xml version="1.0" encoding="UTF-8" standalone="no"?>
<!DOCTYPE svg PUBLIC "-//W3C//DTD SVG 1.1//EN"
 "http://www.w3.org/Graphics/SVG/1.1/DTD/svg11.dtd">
<!-- Generated by graphviz version 2.40.1 (20161225.0304)
 -->
<!-- Title: biomodel::flatModel::Bio4 Pages: 1 -->
<svg width="109pt" height="106pt"
 viewBox="0.00 0.00 109.00 106.00" xmlns="http://www.w3.org/2000/svg" xmlns:xlink="http://www.w3.org/1999/xlink">
<g id="graph0" class="graph" transform="scale(1 1) rotate(0) translate(4 102)">
<title>biomodel::flatModel::Bio4</title>
<polygon fill="#ffffff" stroke="transparent" points="-4,4 -4,-102 105,-102 105,4 -4,4"/>
<!-- Node2 -->
<g id="node1" class="node">
<title>Node2</title>
<polygon fill="#bfbfbf" stroke="#000000" points="0,-.5 0,-30.5 101,-30.5 101,-.5 0,-.5"/>
<text text-anchor="start" x="8" y="-18.5" font-family="Helvetica,sans-Serif" font-size="10.00" fill="#000000">biomodel::flatModel</text>
<text text-anchor="middle" x="50.5" y="-7.5" font-family="Helvetica,sans-Serif" font-size="10.00" fill="#000000">::Bio4</text>
</g>
<!-- Node3 -->
<g id="node2" class="node">
<title>Node3</title>
<g id="a_node2"><a xlink:href="structbiomodel_1_1flatModel_1_1Medium.html" target="_top" xlink:title="biomodel::flatModel\l::Medium">
<polygon fill="#ffffff" stroke="#000000" points="0,-67.5 0,-97.5 101,-97.5 101,-67.5 0,-67.5"/>
<text text-anchor="start" x="8" y="-85.5" font-family="Helvetica,sans-Serif" font-size="10.00" fill="#000000">biomodel::flatModel</text>
<text text-anchor="middle" x="50.5" y="-74.5" font-family="Helvetica,sans-Serif" font-size="10.00" fill="#000000">::Medium</text>
</a>
</g>
</g>
<!-- Node3&#45;&gt;Node2 -->
<g id="edge1" class="edge">
<title>Node3&#45;&gt;Node2</title>
<path fill="none" stroke="#191970" d="M50.5,-57.0249C50.5,-48.128 50.5,-38.4287 50.5,-30.6432"/>
<polygon fill="#191970" stroke="#191970" points="47.0001,-57.2966 50.5,-67.2967 54.0001,-57.2967 47.0001,-57.2966"/>
</g>
</g>
</svg>
