<?xml version="1.0" encoding="UTF-8" standalone="no"?>
<!DOCTYPE svg PUBLIC "-//W3C//DTD SVG 1.1//EN"
 "http://www.w3.org/Graphics/SVG/1.1/DTD/svg11.dtd">
<!-- Generated by graphviz version 2.40.1 (20161225.0304)
 -->
<!-- Title: biomodel::deepModel::Model Pages: 1 -->
<svg width="117pt" height="106pt"
 viewBox="0.00 0.00 117.00 106.00" xmlns="http://www.w3.org/2000/svg" xmlns:xlink="http://www.w3.org/1999/xlink">
<g id="graph0" class="graph" transform="scale(1 1) rotate(0) translate(4 102)">
<title>biomodel::deepModel::Model</title>
<polygon fill="#ffffff" stroke="transparent" points="-4,4 -4,-102 113,-102 113,4 -4,4"/>
<!-- Node1 -->
<g id="node1" class="node">
<title>Node1</title>
<polygon fill="#bfbfbf" stroke="#000000" points="0,-.5 0,-30.5 109,-30.5 109,-.5 0,-.5"/>
<text text-anchor="start" x="8" y="-18.5" font-family="Helvetica,sans-Serif" font-size="10.00" fill="#000000">biomodel::deepModel</text>
<text text-anchor="middle" x="54.5" y="-7.5" font-family="Helvetica,sans-Serif" font-size="10.00" fill="#000000">::Model</text>
</g>
<!-- Node2 -->
<g id="node2" class="node">
<title>Node2</title>
<g id="a_node2"><a xlink:href="structNode.html" target="_top" xlink:title="Node">
<polygon fill="#ffffff" stroke="#000000" points="4.5,-78.5 4.5,-97.5 44.5,-97.5 44.5,-78.5 4.5,-78.5"/>
<text text-anchor="middle" x="24.5" y="-85.5" font-family="Helvetica,sans-Serif" font-size="10.00" fill="#000000">Node</text>
</a>
</g>
</g>
<!-- Node2&#45;&gt;Node1 -->
<g id="edge1" class="edge">
<title>Node2&#45;&gt;Node1</title>
<path fill="none" stroke="#9a32cd" stroke-dasharray="5,2" d="M32.4681,-68.7439C37.4003,-56.8244 43.6435,-41.7366 48.2236,-30.668"/>
<polygon fill="#9a32cd" stroke="#9a32cd" points="29.1355,-67.6439 28.5459,-78.2223 35.6036,-70.3204 29.1355,-67.6439"/>
<text text-anchor="middle" x="50.5" y="-52" font-family="Helvetica,sans-Serif" font-size="10.00" fill="#000000"> root</text>
</g>
<!-- Node3 -->
<g id="node3" class="node">
<title>Node3</title>
<g id="a_node3"><a xlink:href="structFrame.html" target="_top" xlink:title="Frame">
<polygon fill="#ffffff" stroke="#000000" points="62.5,-78.5 62.5,-97.5 106.5,-97.5 106.5,-78.5 62.5,-78.5"/>
<text text-anchor="middle" x="84.5" y="-85.5" font-family="Helvetica,sans-Serif" font-size="10.00" fill="#000000">Frame</text>
</a>
</g>
</g>
<!-- Node3&#45;&gt;Node1 -->
<g id="edge2" class="edge">
<title>Node3&#45;&gt;Node1</title>
<path fill="none" stroke="#9a32cd" stroke-dasharray="5,2" d="M76.5319,-68.7439C71.5997,-56.8244 65.3565,-41.7366 60.7764,-30.668"/>
<polygon fill="#9a32cd" stroke="#9a32cd" points="73.3964,-70.3204 80.4541,-78.2223 79.8645,-67.6439 73.3964,-70.3204"/>
<text text-anchor="middle" x="85.5" y="-52" font-family="Helvetica,sans-Serif" font-size="10.00" fill="#000000"> frame</text>
</g>
</g>
</svg>
