<?xml version="1.0" encoding="UTF-8" standalone="no"?>
<!DOCTYPE svg PUBLIC "-//W3C//DTD SVG 1.1//EN"
 "http://www.w3.org/Graphics/SVG/1.1/DTD/svg11.dtd">
<!-- Generated by graphviz version 2.40.1 (20161225.0304)
 -->
<!-- Title: biomodel::flatModel::Medium Pages: 1 -->
<svg width="347pt" height="106pt"
 viewBox="0.00 0.00 347.00 106.00" xmlns="http://www.w3.org/2000/svg" xmlns:xlink="http://www.w3.org/1999/xlink">
<g id="graph0" class="graph" transform="scale(1 1) rotate(0) translate(4 102)">
<title>biomodel::flatModel::Medium</title>
<polygon fill="#ffffff" stroke="transparent" points="-4,4 -4,-102 343,-102 343,4 -4,4"/>
<!-- Node0 -->
<g id="node1" class="node">
<title>Node0</title>
<polygon fill="#bfbfbf" stroke="#000000" points="178,-67.5 178,-97.5 279,-97.5 279,-67.5 178,-67.5"/>
<text text-anchor="start" x="186" y="-85.5" font-family="Helvetica,sans-Serif" font-size="10.00" fill="#000000">biomodel::flatModel</text>
<text text-anchor="middle" x="228.5" y="-74.5" font-family="Helvetica,sans-Serif" font-size="10.00" fill="#000000">::Medium</text>
</g>
<!-- Node1 -->
<g id="node2" class="node">
<title>Node1</title>
<g id="a_node2"><a xlink:href="structbiomodel_1_1flatModel_1_1Bio4.html" target="_top" xlink:title="biomodel::flatModel\l::Bio4">
<polygon fill="#ffffff" stroke="#000000" points="0,-.5 0,-30.5 101,-30.5 101,-.5 0,-.5"/>
<text text-anchor="start" x="8" y="-18.5" font-family="Helvetica,sans-Serif" font-size="10.00" fill="#000000">biomodel::flatModel</text>
<text text-anchor="middle" x="50.5" y="-7.5" font-family="Helvetica,sans-Serif" font-size="10.00" fill="#000000">::Bio4</text>
</a>
</g>
</g>
<!-- Node0&#45;&gt;Node1 -->
<g id="edge1" class="edge">
<title>Node0&#45;&gt;Node1</title>
<path fill="none" stroke="#191970" d="M178.9921,-63.865C151.1293,-53.3773 116.7889,-40.4515 90.6209,-30.6017"/>
<polygon fill="#191970" stroke="#191970" points="177.9614,-67.2167 188.5533,-67.4639 180.4273,-60.6654 177.9614,-67.2167"/>
</g>
<!-- Node2 -->
<g id="node3" class="node">
<title>Node2</title>
<g id="a_node3"><a xlink:href="structbiomodel_1_1flatModel_1_1Bio8.html" target="_top" xlink:title="biomodel::flatModel\l::Bio8">
<polygon fill="#ffffff" stroke="#000000" points="119,-.5 119,-30.5 220,-30.5 220,-.5 119,-.5"/>
<text text-anchor="start" x="127" y="-18.5" font-family="Helvetica,sans-Serif" font-size="10.00" fill="#000000">biomodel::flatModel</text>
<text text-anchor="middle" x="169.5" y="-7.5" font-family="Helvetica,sans-Serif" font-size="10.00" fill="#000000">::Bio8</text>
</a>
</g>
</g>
<!-- Node0&#45;&gt;Node2 -->
<g id="edge2" class="edge">
<title>Node0&#45;&gt;Node2</title>
<path fill="none" stroke="#191970" d="M208.3682,-59.6385C199.9381,-50.0653 190.369,-39.1987 182.835,-30.6432"/>
<polygon fill="#191970" stroke="#191970" points="205.8764,-62.1048 215.112,-67.2967 211.1299,-57.4786 205.8764,-62.1048"/>
</g>
<!-- Node3 -->
<g id="node4" class="node">
<title>Node3</title>
<g id="a_node4"><a xlink:href="structbiomodel_1_1flatModel_1_1RigidBody.html" target="_top" xlink:title="biomodel::flatModel\l::RigidBody">
<polygon fill="#ffffff" stroke="#000000" points="238,-.5 238,-30.5 339,-30.5 339,-.5 238,-.5"/>
<text text-anchor="start" x="246" y="-18.5" font-family="Helvetica,sans-Serif" font-size="10.00" fill="#000000">biomodel::flatModel</text>
<text text-anchor="middle" x="288.5" y="-7.5" font-family="Helvetica,sans-Serif" font-size="10.00" fill="#000000">::RigidBody</text>
</a>
</g>
</g>
<!-- Node0&#45;&gt;Node3 -->
<g id="edge3" class="edge">
<title>Node0&#45;&gt;Node3</title>
<path fill="none" stroke="#191970" d="M242.7755,-59.3509C250.7273,-49.8482 260.5746,-39.1132 269.1854,-30.6432"/>
<polygon fill="#191970" stroke="#191970" points="239.9175,-57.319 236.3541,-67.2967 245.3619,-61.7189 239.9175,-57.319"/>
</g>
<!-- Node0&#45;&gt;Node3 -->
<g id="edge4" class="edge">
<title>Node0&#45;&gt;Node3</title>
<path fill="none" stroke="#191970" d="M255.1364,-59.9253C264.3734,-50.2828 274.0006,-39.2843 280.6925,-30.6432"/>
<polygon fill="#191970" stroke="#191970" points="252.3996,-57.7162 247.8757,-67.2967 257.3867,-62.6284 252.3996,-57.7162"/>
</g>
</g>
</svg>
